<?xml version="1.0" encoding="utf-8"?>
<!-- Generator: Adobe Illustrator 25.4.1, SVG Export Plug-In . SVG Version: 6.00 Build 0)  -->
<svg version="1.0" id="Layer_1" xmlns="http://www.w3.org/2000/svg" xmlns:xlink="http://www.w3.org/1999/xlink" x="0px" y="0px"
	 viewBox="0 0 1080 1080" style="enable-background:new 0 0 1080 1080;" xml:space="preserve">
<style type="text/css">
	.st0{fill:#FFFFFF;}
</style>
<path d="M1010,1080H70c-38.66,0-70-31.34-70-70V70C0,31.34,31.34,0,70,0h940c38.66,0,70,31.34,70,70v940
	C1080,1048.66,1048.66,1080,1010,1080z"/>
<g>
	<polygon class="st0" points="647.27,534.37 647.27,189.79 302.69,189.79 373.48,260.57 576.49,260.57 576.49,463.59 	"/>
	<polygon class="st0" points="262.64,326.56 717.25,784.56 817.36,784.56 536.44,503.64 333.43,300.63 262.64,229.84 	"/>
	<polygon class="st0" points="262.64,890.21 506.3,646.55 262.64,402.9 262.64,503 406.2,646.55 262.64,790.11 	"/>
</g>
</svg>
